<svg xmlns="http://www.w3.org/2000/svg" width="54" height="54" viewBox="0 0 54 54"><g transform="translate(-149 -798)"><rect width="54" height="54" rx="3" transform="translate(149 798)" fill="#fff"/><path d="M3,1A2,2,0,0,0,1,3V51a2,2,0,0,0,2,2H51a2,2,0,0,0,2-2V3a2,2,0,0,0-2-2H3M3,0H51a3,3,0,0,1,3,3V51a3,3,0,0,1-3,3H3a3,3,0,0,1-3-3V3A3,3,0,0,1,3,0Z" transform="translate(149 798)" fill="#ddd"/><g transform="translate(163 811)"><path d="M22.625,4H3.375A1.375,1.375,0,0,0,2,5.375v16.5A1.375,1.375,0,0,0,3.375,23.25h19.25A1.375,1.375,0,0,0,24,21.875V5.375A1.375,1.375,0,0,0,22.625,4ZM3.375,21.875V5.375h19.25v16.5Z" fill="#ff8427"/><path d="M7.983,12.125A2.062,2.062,0,1,0,5.92,10.063a2.062,2.062,0,0,0,2.063,2.062Zm0-3.163a1.1,1.1,0,1,0,0,.007Z" transform="translate(-1.225 -1.25)" fill="#ff8427"/><path d="M17.511,15.279,13.8,18.992l-2.75-2.75a.688.688,0,0,0-.969,0L5.92,20.456V22.4l4.668-4.668,2.262,2.228-2.578,2.578h1.891l5.809-5.809,4.5,4.483V19.274l-3.994-3.994a.688.688,0,0,0-.969,0Z" transform="translate(-1.225 -3.462)" fill="#ff8427"/></g></g></svg>