<svg xmlns="http://www.w3.org/2000/svg" width="54" height="54" viewBox="0 0 54 54"><g transform="translate(-88 -800)"><rect width="54" height="54" rx="3" transform="translate(88 800)" fill="#fff"/><path d="M3,1A2,2,0,0,0,1,3V51a2,2,0,0,0,2,2H51a2,2,0,0,0,2-2V3a2,2,0,0,0-2-2H3M3,0H51a3,3,0,0,1,3,3V51a3,3,0,0,1-3,3H3a3,3,0,0,1-3-3V3A3,3,0,0,1,3,0Z" transform="translate(88 800)" fill="#ddd"/><g transform="translate(101 808.518)"><path d="M13.029,16.265A2.765,2.765,0,1,1,10.265,13.5a2.765,2.765,0,0,1,2.765,2.765Z" transform="translate(-1.182 -1.182)" fill="#ff8427"/><path d="M19.814,10.106H14.059a1.106,1.106,0,0,0-1.106,1.106v7.741H5.212V9H3V24.482H5.212V21.164H22.906v3.318h2.212V15.408A5.308,5.308,0,0,0,19.814,10.106Zm-4.65,8.847V12.318h4.651a3.094,3.094,0,0,1,3.091,3.091v3.545Z" fill="#ff8427"/></g></g></svg>