<svg xmlns="http://www.w3.org/2000/svg" width="15.916" height="25.466" viewBox="0 0 15.916 25.466"><g transform="translate(-6.75)"><path d="M7.546,14.625a.8.8,0,0,1,.8.8v1.592a6.366,6.366,0,0,0,12.733,0V15.421a.8.8,0,0,1,1.592,0v1.592A7.958,7.958,0,0,1,15.5,24.931v3.223h4.775a.8.8,0,0,1,0,1.592H9.137a.8.8,0,0,1,0-1.592h4.775V24.931A7.958,7.958,0,0,1,6.75,17.012V15.421A.8.8,0,0,1,7.546,14.625Z" transform="translate(0 -4.28)" fill="#ff8427" fill-rule="evenodd"/><path d="M19.208,12.733V4.775a3.183,3.183,0,1,0-6.366,0v7.958a3.183,3.183,0,1,0,6.366,0ZM16.025,0A4.775,4.775,0,0,0,11.25,4.775v7.958a4.775,4.775,0,1,0,9.55,0V4.775A4.775,4.775,0,0,0,16.025,0Z" transform="translate(-1.317)" fill="#ff8427" fill-rule="evenodd"/></g></svg>