<svg xmlns="http://www.w3.org/2000/svg" width="54" height="54" viewBox="0 0 54 54"><g transform="translate(-25 -800)"><rect width="54" height="54" rx="3" transform="translate(25 800)" fill="#fff"/><path d="M3,1A2,2,0,0,0,1,3V51a2,2,0,0,0,2,2H51a2,2,0,0,0,2-2V3a2,2,0,0,0-2-2H3M3,0H51a3,3,0,0,1,3,3V51a3,3,0,0,1-3,3H3a3,3,0,0,1-3-3V3A3,3,0,0,1,3,0Z" transform="translate(25 800)" fill="#ddd"/><path d="M.666,16.135H19.924V18.18H.666ZM20.518,6.649a1.446,1.446,0,0,1-.142,1.141,1.544,1.544,0,0,1-.927.737L14.028,9.954,9.654,11.142,4.233,12.569l-1.617.475-.761-1.379L0,8.479l1.474-.428,2,1.569L8.512,8.289,4.327,1.014,6.277.491l6.99,6.514L18.64,5.579a1.373,1.373,0,0,1,1.165.142,1.539,1.539,0,0,1,.713.927Z" transform="translate(41.999 814.82)" fill="#ff8427"/></g></svg>