<svg xmlns="http://www.w3.org/2000/svg" width="17.911" height="19.538" viewBox="0 0 17.911 19.538"><g transform="translate(-6.75 -4.5)"><path d="M22.737,10.363a.814.814,0,0,1,1.153,0l4.884,4.884a.814.814,0,0,1,0,1.153L23.89,21.284a.815.815,0,1,1-1.153-1.153l4.309-4.308-4.31-4.308a.814.814,0,0,1,0-1.153Z" transform="translate(-4.352 -1.554)" fill="#707070" fill-rule="evenodd"/><path d="M11.634,14.269a.814.814,0,0,1,.814-.814H23.031a.814.814,0,1,1,0,1.628H12.448A.814.814,0,0,1,11.634,14.269Zm-4.07,9.769a.814.814,0,0,1-.814-.814V5.314a.814.814,0,1,1,1.628,0V23.224A.814.814,0,0,1,7.564,24.038Z" fill="#707070" fill-rule="evenodd"/></g></svg>